<svg width="328" height="120" viewBox="0 0 328 120" fill="none" xmlns="http://www.w3.org/2000/svg">
<rect x="73" width="233" height="110" fill="#D2C2B0"/>
<path d="M29.125 31.0312C27.125 31.0312 25.0938 31.25 23.0312 31.6875C20.9896 32.1042 18.8438 32.8854 16.5938 34.0312C14.3646 35.1771 12.3958 36.625 10.6875 38.375C8.97917 40.125 7.57292 42.4583 6.46875 45.375C5.36458 48.2708 4.8125 51.5521 4.8125 55.2188C4.8125 58.8854 5.36458 62.1771 6.46875 65.0938C7.57292 67.9896 8.97917 70.3021 10.6875 72.0312C12.3958 73.7396 14.3646 75.1667 16.5938 76.3125C18.8438 77.4375 20.9896 78.2083 23.0312 78.625C25.0938 79.0625 27.125 79.2812 29.125 79.2812C32.2708 79.2812 35.0938 78.9792 37.5938 78.375C40.0938 77.7917 42.9271 76.875 46.0938 75.625C45.1562 73.0625 44.6875 69.8229 44.6875 65.9062V61.2812C44.6875 59.7604 48.1562 58.7604 55.0938 58.2812C55.3229 57.7812 55.3229 57.2917 55.0938 56.8125C49.6354 56.9792 45.375 57.0625 42.3125 57.0625C39.75 57.0625 36.125 56.9792 31.4375 56.8125C31.2917 57.2917 31.2917 57.7812 31.4375 58.2812C36.25 58.7604 38.6562 59.7604 38.6562 61.2812V73.9688C36.8646 76.0104 33.6875 77.0312 29.125 77.0312C26.6875 77.0312 24.4688 76.5833 22.4688 75.6875C20.4688 74.7917 18.8125 73.6146 17.5 72.1562C16.2083 70.6771 15.125 68.9688 14.25 67.0312C13.375 65.0938 12.7396 63.1458 12.3438 61.1875C11.9688 59.2083 11.7812 57.2188 11.7812 55.2188C11.7812 52.6562 12.0938 50.1562 12.7188 47.7188C13.3646 45.2604 14.3333 42.9271 15.625 40.7188C16.9375 38.4896 18.75 36.6875 21.0625 35.3125C23.3958 33.9375 26.0833 33.25 29.125 33.25C31.1667 33.25 33.0625 33.5729 34.8125 34.2188C36.5625 34.8646 38 35.625 39.125 36.5C40.2708 37.375 41.375 38.5521 42.4375 40.0312C43.5 41.4896 44.3021 42.7604 44.8438 43.8438C45.4062 44.9062 46.0729 46.2604 46.8438 47.9062C47.4896 47.8229 47.875 47.5938 48 47.2188C46.4583 41.0312 44.125 36.7917 41 34.5C37.8958 32.1875 33.9375 31.0312 29.125 31.0312ZM46.0938 49.3125C45.1979 47.3125 44.375 45.6667 43.625 44.375C42.875 43.0625 41.8646 41.6042 40.5938 40C39.3438 38.375 37.8542 37.1146 36.125 36.2188C34.3958 35.3229 32.4688 34.7812 30.3438 34.5938C27.9062 34.7396 25.7604 35.4792 23.9062 36.8125C22.0521 38.125 20.6146 39.8125 19.5938 41.875C18.5729 43.9375 17.8125 46.0938 17.3125 48.3438C16.8125 50.5729 16.5625 52.8646 16.5625 55.2188C16.5625 58.4688 17 61.5729 17.875 64.5312C18.75 67.4896 20.2812 70.1042 22.4688 72.375C24.6771 74.625 27.3854 75.75 30.5938 75.75C33.5729 75.75 35.8333 74.9896 37.375 73.4688V61.2812C37.375 60.5729 35.0521 59.9792 30.4062 59.5C29.8438 58.0417 29.8854 56.6979 30.5312 55.4688C36.7604 55.7604 45.375 55.8229 56.375 55.6562C56.8542 56.9062 56.875 58.1875 56.4375 59.5C51.7917 59.9792 49.4688 60.5729 49.4688 61.2812V65.9062C49.4688 69.6979 50.0625 73.1979 51.25 76.4062C48.3125 77.5104 46.125 78.2708 44.6875 78.6875C43.2708 79.125 41.2083 79.5417 38.5 79.9375C35.7917 80.3542 32.6667 80.5625 29.125 80.5625C26.9792 80.5625 24.8333 80.3333 22.6875 79.875C20.5417 79.4375 18.2917 78.625 15.9375 77.4375C13.5833 76.2292 11.5104 74.7188 9.71875 72.9062C7.92708 71.0938 6.44792 68.6667 5.28125 65.625C4.11458 62.5625 3.53125 59.0938 3.53125 55.2188C3.53125 51.3438 4.10417 47.8854 5.25 44.8438C6.39583 41.7812 7.85417 39.3333 9.625 37.5C11.3958 35.6667 13.4375 34.1458 15.75 32.9375C18.0833 31.7083 20.3125 30.875 22.4375 30.4375C24.5833 29.9792 26.7292 29.75 28.875 29.75C32.3333 29.75 36.1667 30.1875 40.375 31.0625C44.6042 31.9375 47.2917 32.4375 48.4375 32.5625C47.7708 35.25 47.5104 37.6146 47.6562 39.6562C47.8021 41.6771 48.3854 44.1562 49.4062 47.0938C48.8021 48.3229 47.6979 49.0625 46.0938 49.3125ZM67.9375 55.2812C68.9167 55.4479 69.6875 55.8333 70.25 56.4375C70.8333 57.0208 71.125 57.7708 71.125 58.6875C71.125 59.7917 70.7604 60.7083 70.0312 61.4375C69.3021 62.1458 68.3438 62.5 67.1562 62.5C65.9271 62.5 64.8125 62.0625 63.8125 61.1875C62.8125 60.3125 62.3125 59.0729 62.3125 57.4688C62.3125 54.7396 63.6042 52.5312 66.1875 50.8438C68.7917 49.1562 72.1875 48.3125 76.375 48.3125C80.3542 48.3125 83.1458 49.1146 84.75 50.7188C86.375 52.3021 87.1875 54.9792 87.1875 58.75V69.6875L89.1875 69.625C90.8958 69.75 92.0833 70.5625 92.75 72.0625L91.75 73.7812C91.1042 74.7604 90.5625 75.5208 90.125 76.0625C89.7083 76.5833 89.1042 77.1771 88.3125 77.8438C87.5208 78.5104 86.5938 78.9896 85.5312 79.2812C84.4688 79.5729 83.2292 79.7188 81.8125 79.7188C80.0625 79.7188 78.7396 79.0625 77.8438 77.75C75.5938 79.375 72.6562 80.1875 69.0312 80.1875C67.4479 80.1875 66.0938 79.9375 64.9688 79.4375C63.8646 78.9583 63.0521 78.3125 62.5312 77.5C62.0312 76.6875 61.6771 75.9271 61.4688 75.2188C61.2604 74.5104 61.1562 73.7917 61.1562 73.0625C61.1562 70 62.1875 67.7083 64.25 66.1875C66.3125 64.6667 70.4792 63.1042 76.75 61.5V58.0938C76.75 56.4271 76.3958 55.2083 75.6875 54.4375C75 53.6667 74.1042 53.2812 73 53.2812C70.6458 53.2812 68.9583 53.9479 67.9375 55.2812ZM78.0312 64.4375V70.9688C76.0312 73.6146 73.9896 74.9375 71.9062 74.9375C70.6979 74.9375 69.7083 74.6458 68.9375 74.0625C68.1875 73.4792 67.8125 72.6562 67.8125 71.5938C67.8125 69.8854 68.5104 68.4792 69.9062 67.375C71.3229 66.2708 74.0312 65.2917 78.0312 64.4375ZM76.75 70.5625V66.75C73.7292 67.8542 72.2188 69.4688 72.2188 71.5938C72.2188 72.4896 72.5417 73.1146 73.1875 73.4688C74.2917 73.0729 75.4792 72.1042 76.75 70.5625ZM67.1562 59.75C66.4271 59.75 65.9167 59.2188 65.625 58.1562C65.2083 56.4479 65.7188 54.9583 67.1562 53.6875C68.5729 52.4375 70.7083 51.8125 73.5625 51.8125C74.9167 51.8125 76 52.3438 76.8125 53.4062C77.625 54.4479 78.0312 56.0104 78.0312 58.0938V62.4375C71.8854 64.0208 67.75 65.5208 65.625 66.9375C63.5 68.3333 62.4375 70.375 62.4375 73.0625C62.4375 74.4792 62.9167 75.8125 63.875 77.0625C64.8333 78.2917 66.5521 78.9062 69.0312 78.9062C70.0104 78.9062 70.9271 78.75 71.7812 78.4375C72.6562 78.125 73.5521 77.625 74.4688 76.9375C75.4062 76.2292 75.9792 75.7812 76.1875 75.5938C76.3958 75.4062 76.7396 75.0833 77.2188 74.625C77.7188 74.1458 77.9896 73.8854 78.0312 73.8438C78.3021 76.9062 79.5625 78.4375 81.8125 78.4375C82.375 78.4375 83.0208 78.2917 83.75 78C84.4792 77.7083 85.2083 77.1354 85.9375 76.2812C86.6875 75.4271 87.1562 74.8646 87.3438 74.5938C87.5521 74.3021 87.8542 73.8542 88.25 73.25C88.6458 72.625 88.9375 72.1979 89.125 71.9688C88.8542 71.3854 88.3333 71.0521 87.5625 70.9688C86.4167 72.7188 85.25 73.5729 84.0625 73.5312C83.2083 73.4896 82.7812 72.8854 82.7812 71.7188V58.75C82.7812 55.4167 82.125 53.0625 80.8125 51.6875C79.5208 50.2917 77.2917 49.5938 74.125 49.5938C71.2708 49.5938 68.7917 50.3333 66.6875 51.8125C64.6042 53.2708 63.5625 55.1562 63.5625 57.4688C63.5625 58.6562 63.9271 59.5833 64.6562 60.25C65.3854 60.8958 66.2188 61.2188 67.1562 61.2188C67.4479 60.8021 67.4479 60.3125 67.1562 59.75ZM106.25 53.375H118.531C118.823 52.5625 118.823 51.8125 118.531 51.125H106.25V44.2812C105.729 44.0521 105.208 44.0521 104.688 44.2812C103.917 45.7188 103.062 46.9792 102.125 48.0625C101.188 49.125 100.396 49.875 99.75 50.3125C99.125 50.7292 98.2188 51.2708 97.0312 51.9375C96.8854 52.375 96.8854 52.8542 97.0312 53.375H100.844V69.75C100.844 75.8542 103.365 78.9062 108.406 78.9062C110.552 78.9062 112.531 78.3542 114.344 77.25C116.156 76.125 117.51 74.75 118.406 73.125C118.219 72.6667 117.875 72.4167 117.375 72.375C115.417 74.125 113.521 75 111.688 75C108.062 75 106.25 73.3542 106.25 70.0625V53.375ZM117 71.0312C118.312 71.1979 119.25 71.9167 119.812 73.1875C118.729 75.1667 117.156 76.8229 115.094 78.1562C113.031 79.5104 110.802 80.1875 108.406 80.1875C102.531 80.1875 99.5938 76.7083 99.5938 69.75V54.625H95.75C95.4375 53.5208 95.4375 52.375 95.75 51.1875C97.0208 50.4583 97.9896 49.8646 98.6562 49.4062C99.3229 48.9271 100.156 48.1562 101.156 47.0938C102.156 46.0312 103.042 44.75 103.812 43.25C105.771 42.4375 108.052 42.4792 110.656 43.375V49.8438H119.75C120.417 51.3854 120.417 52.9792 119.75 54.625H110.656V70.0625C110.656 72.0625 111.375 73.2396 112.812 73.5938C114.062 73.3229 115.458 72.4688 117 71.0312ZM144.906 76.5625C144.656 77.0417 144.656 77.5521 144.906 78.0938C150.323 77.9688 155.74 77.9688 161.156 78.0938C161.469 77.5938 161.469 77.0833 161.156 76.5625C156.094 76.3125 153.542 75.3125 153.5 73.5625L153.156 57.8438C153.073 54.9896 152.615 52.9062 151.781 51.5938C150.948 50.2604 149.51 49.5938 147.469 49.5938C144.01 49.5938 139.896 51.9792 135.125 56.75V31.2188C134.958 30.8854 134.594 30.6042 134.031 30.375C131.135 31.75 128.125 32.6042 125 32.9375C124.875 33.4583 124.875 33.9479 125 34.4062C127.396 34.5312 129.167 34.9583 130.312 35.6875V73.5625C130.271 75.1042 128.479 76.1042 124.938 76.5625C124.688 77.0417 124.688 77.5521 124.938 78.0938C130.396 77.8854 135.833 77.8854 141.25 78.0938C141.521 77.5521 141.521 77.0417 141.25 76.5625C137.375 76.1458 135.417 75.1458 135.375 73.5625C135.208 69.125 135.125 64.1875 135.125 58.75C139.292 55.0625 142.573 53.2188 144.969 53.2188C147.24 53.2188 148.375 55.1042 148.375 58.875L148.312 73.5625C148.312 74.5833 148 75.3021 147.375 75.7188C146.75 76.1146 145.927 76.3958 144.906 76.5625ZM143.875 79.1875C143.375 77.9583 143.375 76.6979 143.875 75.4062C144.562 75.4062 145.26 75.2292 145.969 74.875C146.677 74.5 147.031 74.0625 147.031 73.5625L147.094 58.875C147.094 56.6042 146.646 55.2188 145.75 54.7188C144.208 55.0938 142.135 56.2188 139.531 58.0938C139.531 63.7188 139.615 68.8542 139.781 73.5C139.865 74.6042 140.698 75.2396 142.281 75.4062C142.802 76.6979 142.802 77.9583 142.281 79.1875C136.177 78.9792 130.031 78.9792 123.844 79.1875C123.344 77.9583 123.344 76.6979 123.844 75.4062C127.26 74.9479 128.99 74.3125 129.031 73.5V36.4688C127.635 36.0312 125.906 35.75 123.844 35.625C123.385 34.3958 123.385 33.0729 123.844 31.6562C127.01 31.4896 130.552 30.5521 134.469 28.8438C136.74 29.0104 138.427 29.6979 139.531 30.9062V51.25C142.469 49.2917 145.865 48.3125 149.719 48.3125C152.531 48.3125 154.531 49.0833 155.719 50.625C156.927 52.1458 157.552 54.5521 157.594 57.8438C157.677 66.0104 157.781 71.25 157.906 73.5625C157.948 74.4167 159.417 75.0312 162.312 75.4062C162.792 76.7812 162.75 78.0417 162.188 79.1875C156.083 79.0625 149.979 79.0625 143.875 79.1875ZM181.094 51.625C182.76 51.625 183.969 52.1667 184.719 53.25C185.469 54.3125 185.844 55.6458 185.844 57.25C185.844 57.8542 185.74 58.5417 185.531 59.3125H173.344C173.99 56.7083 175.031 54.7812 176.469 53.5312C177.927 52.2604 179.469 51.625 181.094 51.625ZM173.031 61.4375H190.062C190.396 60.3958 190.562 59.3229 190.562 58.2188C190.562 55.7812 189.865 53.7396 188.469 52.0938C187.094 50.4271 184.896 49.5938 181.875 49.5938C177.938 49.5938 174.625 51.0208 171.938 53.875C169.25 56.7292 167.906 60.3542 167.906 64.75C167.906 69.4375 169.188 72.9688 171.75 75.3438C174.312 77.7188 177.323 78.9062 180.781 78.9062C183.344 78.9062 185.719 78.2188 187.906 76.8438C190.115 75.4479 191.729 73.3542 192.75 70.5625C192.458 70.2292 192.052 70 191.531 69.875C191.448 70 191.198 70.3438 190.781 70.9062C190.385 71.4479 190.094 71.8438 189.906 72.0938C189.719 72.3229 189.375 72.6667 188.875 73.125C188.396 73.5625 187.927 73.8854 187.469 74.0938C187.031 74.3021 186.469 74.5104 185.781 74.7188C185.094 74.9062 184.344 75 183.531 75C180.323 75 177.771 74.0521 175.875 72.1562C173.979 70.2396 172.99 67.6667 172.906 64.4375C172.906 63.7083 172.948 62.7083 173.031 61.4375ZM191.031 68.4062C192.344 68.6979 193.406 69.3542 194.219 70.375C193.031 73.625 191.198 76.0729 188.719 77.7188C186.24 79.3646 183.594 80.1875 180.781 80.1875C176.948 80.1875 173.625 78.8958 170.812 76.3125C168.021 73.7292 166.625 69.875 166.625 64.75C166.625 60.1042 168.052 56.2083 170.906 53.0625C173.781 49.8958 177.844 48.3125 183.094 48.3125C191.031 48.3125 195 51.6146 195 58.2188C195 59.5104 194.698 61.0104 194.094 62.7188H177.312V64.75C177.417 67.2708 178.104 69.3229 179.375 70.9062C180.646 72.4688 182.396 73.3854 184.625 73.6562C185.938 73.5312 187.021 73.0833 187.875 72.3125C188.729 71.5417 189.781 70.2396 191.031 68.4062ZM184.562 57.25C184.562 54.9583 183.792 53.5729 182.25 53.0938C180.417 53.6562 179.052 55.3021 178.156 58.0312H184.5C184.5 57.9479 184.51 57.8229 184.531 57.6562C184.552 57.4896 184.562 57.3542 184.562 57.25ZM212 60.4062C212.521 58.4896 213.594 56.625 215.219 54.8125C216.844 53 218.5 52.0938 220.188 52.0938C222.167 52.0938 223.156 52.7292 223.156 54C223.156 55.1458 222.615 55.875 221.531 56.1875C221.24 56.6042 221.24 57.0938 221.531 57.6562C222.656 57.6562 223.573 57.3125 224.281 56.625C225.01 55.9375 225.375 54.9792 225.375 53.75C225.375 52.4583 224.979 51.4479 224.188 50.7188C223.417 49.9688 222.406 49.5938 221.156 49.5938C219.531 49.5938 217.896 50.25 216.25 51.5625C214.625 52.8542 213.208 54.3021 212 55.9062V50.5312C211.833 50.1979 211.479 49.9271 210.938 49.7188C208.146 51.0312 204.917 51.8854 201.25 52.2812C201.125 52.7812 201.125 53.2708 201.25 53.75C204.062 53.875 206.073 54.3021 207.281 55.0312C207.448 62.8021 207.427 69.0312 207.219 73.7188C207.177 75.2604 205.406 76.2604 201.906 76.7188C201.594 77.2812 201.594 77.7708 201.906 78.1875C207.365 77.9375 213.312 77.9375 219.75 78.1875C220.042 77.7708 220.042 77.2812 219.75 76.7188C214.812 76.2604 212.323 75.2604 212.281 73.7188C212.094 69.4896 212 65.0521 212 60.4062ZM216.688 73.6562C216.729 74.4688 218.135 75.1042 220.906 75.5625C221.594 76.9375 221.552 78.2604 220.781 79.5312C211.948 79.2396 205.271 79.1771 200.75 79.3438C199.979 78.1146 199.938 76.8542 200.625 75.5625C204.125 75.1042 205.896 74.4688 205.938 73.6562C206.188 67.7188 206.208 61.7604 206 55.7812C204.625 55.3646 202.729 55.0938 200.312 54.9688C199.833 53.7188 199.833 52.3958 200.312 51C203.792 50.7917 207.479 49.8542 211.375 48.1875C213.625 48.4375 215.312 49.1146 216.438 50.2188C218.188 48.9479 219.76 48.3125 221.156 48.3125C222.781 48.3125 224.104 48.7917 225.125 49.75C226.146 50.7083 226.656 52.0417 226.656 53.75C226.656 55.375 226.177 56.6458 225.219 57.5625C224.26 58.4792 223.031 58.9375 221.531 58.9375C220.135 58.9375 218.969 58.4688 218.031 57.5312C217.177 58.6771 216.646 59.7188 216.438 60.6562C216.438 65.1771 216.521 69.5104 216.688 73.6562Z" fill="black"/>
<path d="M245.64 97.552H242.984V94.736L241.064 92.752H236.168L234.504 94.448V98.864L236.072 100.464H242.728L245.96 103.856V110.48L242.632 114H234.568L231.24 110.48V106.448H233.896V109.264L235.848 111.248H241.384L243.016 109.552V104.784L241.48 103.216H234.824L231.56 99.792V93.52L234.888 90H242.312L245.64 93.52V97.552ZM250.748 93.2H263.548L266.876 96.72V103.44L263.548 106.96H255.932V111.44H258.492V114H250.748V111.44H252.988V95.76H250.748V93.2ZM255.932 95.952V104.208H262.268L264.124 102.32V97.84L262.3 95.952H255.932ZM280.948 114V111.44H283.06L281.684 107.472H273.684L272.308 111.44H274.452V114H267.668V111.44H269.364L274.772 95.76H273.428V93.2H281.972V95.76H280.596L286.003 111.44H287.732V114H280.948ZM277.684 95.856L274.548 104.912H280.82L277.684 95.856ZM302.939 106.448H305.499V110.48L302.171 114H294.107L290.779 110.48V96.72L294.107 93.2H302.171L305.499 96.72V100.752H302.939V98.032L300.923 95.952H295.387L293.723 97.648V109.552L295.355 111.248H300.891L302.939 109.168V106.448ZM309.966 93.2H325.198V99.472H322.638V95.76H315.15V102.32H322.638V104.88H315.15V111.44H322.638V107.728H325.198V114H309.966V111.44H312.206V95.76H309.966V93.2Z" fill="black"/>
</svg>
