<svg width="37" height="30" viewBox="0 0 37 30" fill="none" xmlns="http://www.w3.org/2000/svg">
<path d="M32.2835 0H6V29.3333H32.2835V0Z" fill="url(#paint0_radial_2_16)" fill-opacity="0.5"/>
<path d="M3.64062 7.12891C3.39062 7.12891 3.13672 7.15625 2.87891 7.21094C2.6237 7.26302 2.35547 7.36068 2.07422 7.50391C1.79557 7.64714 1.54948 7.82812 1.33594 8.04688C1.1224 8.26562 0.946615 8.55729 0.808594 8.92188C0.670573 9.28385 0.601562 9.69401 0.601562 10.1523C0.601562 10.6107 0.670573 11.0221 0.808594 11.3867C0.946615 11.7487 1.1224 12.0378 1.33594 12.2539C1.54948 12.4674 1.79557 12.6458 2.07422 12.7891C2.35547 12.9297 2.6237 13.026 2.87891 13.0781C3.13672 13.1328 3.39062 13.1602 3.64062 13.1602C4.03385 13.1602 4.38672 13.1224 4.69922 13.0469C5.01172 12.974 5.36589 12.8594 5.76172 12.7031C5.64453 12.3828 5.58594 11.9779 5.58594 11.4883V10.9102C5.58594 10.7201 6.01953 10.5951 6.88672 10.5352C6.91536 10.4727 6.91536 10.4115 6.88672 10.3516C6.20443 10.3724 5.67188 10.3828 5.28906 10.3828C4.96875 10.3828 4.51562 10.3724 3.92969 10.3516C3.91146 10.4115 3.91146 10.4727 3.92969 10.5352C4.53125 10.5951 4.83203 10.7201 4.83203 10.9102V12.4961C4.60807 12.7513 4.21094 12.8789 3.64062 12.8789C3.33594 12.8789 3.05859 12.8229 2.80859 12.7109C2.55859 12.599 2.35156 12.4518 2.1875 12.2695C2.02604 12.0846 1.89062 11.8711 1.78125 11.6289C1.67188 11.3867 1.59245 11.1432 1.54297 10.8984C1.49609 10.651 1.47266 10.4023 1.47266 10.1523C1.47266 9.83203 1.51172 9.51953 1.58984 9.21484C1.67057 8.90755 1.79167 8.61589 1.95312 8.33984C2.11719 8.0612 2.34375 7.83594 2.63281 7.66406C2.92448 7.49219 3.26042 7.40625 3.64062 7.40625C3.89583 7.40625 4.13281 7.44661 4.35156 7.52734C4.57031 7.60807 4.75 7.70312 4.89062 7.8125C5.03385 7.92188 5.17188 8.06901 5.30469 8.25391C5.4375 8.4362 5.53776 8.59505 5.60547 8.73047C5.67578 8.86328 5.75911 9.03255 5.85547 9.23828C5.9362 9.22786 5.98438 9.19922 6 9.15234C5.80729 8.37891 5.51562 7.84896 5.125 7.5625C4.73698 7.27344 4.24219 7.12891 3.64062 7.12891ZM5.76172 9.41406C5.64974 9.16406 5.54688 8.95833 5.45312 8.79688C5.35938 8.63281 5.23307 8.45052 5.07422 8.25C4.91797 8.04688 4.73177 7.88932 4.51562 7.77734C4.29948 7.66536 4.05859 7.59766 3.79297 7.57422C3.48828 7.59245 3.22005 7.6849 2.98828 7.85156C2.75651 8.01562 2.57682 8.22656 2.44922 8.48438C2.32161 8.74219 2.22656 9.01172 2.16406 9.29297C2.10156 9.57161 2.07031 9.85807 2.07031 10.1523C2.07031 10.5586 2.125 10.9466 2.23438 11.3164C2.34375 11.6862 2.53516 12.013 2.80859 12.2969C3.08464 12.5781 3.42318 12.7188 3.82422 12.7188C4.19661 12.7188 4.47917 12.6237 4.67188 12.4336V10.9102C4.67188 10.8216 4.38151 10.7474 3.80078 10.6875C3.73047 10.5052 3.73568 10.3372 3.81641 10.1836C4.59505 10.2201 5.67188 10.2279 7.04688 10.207C7.10677 10.3633 7.10938 10.5234 7.05469 10.6875C6.47396 10.7474 6.18359 10.8216 6.18359 10.9102V11.4883C6.18359 11.9622 6.25781 12.3997 6.40625 12.8008C6.03906 12.9388 5.76562 13.0339 5.58594 13.0859C5.40885 13.1406 5.15104 13.1927 4.8125 13.2422C4.47396 13.2943 4.08333 13.3203 3.64062 13.3203C3.3724 13.3203 3.10417 13.2917 2.83594 13.2344C2.56771 13.1797 2.28646 13.0781 1.99219 12.9297C1.69792 12.7786 1.4388 12.5898 1.21484 12.3633C0.990885 12.1367 0.80599 11.8333 0.660156 11.4531C0.514323 11.0703 0.441406 10.6367 0.441406 10.1523C0.441406 9.66797 0.513021 9.23568 0.65625 8.85547C0.799479 8.47266 0.981771 8.16667 1.20312 7.9375C1.42448 7.70833 1.67969 7.51823 1.96875 7.36719C2.26042 7.21354 2.53906 7.10938 2.80469 7.05469C3.07292 6.9974 3.34115 6.96875 3.60938 6.96875C4.04167 6.96875 4.52083 7.02344 5.04688 7.13281C5.57552 7.24219 5.91146 7.30469 6.05469 7.32031C5.97135 7.65625 5.9388 7.95182 5.95703 8.20703C5.97526 8.45964 6.04818 8.76953 6.17578 9.13672C6.10026 9.29036 5.96224 9.38281 5.76172 9.41406ZM8.49219 10.1602C8.61458 10.181 8.71094 10.2292 8.78125 10.3047C8.85417 10.3776 8.89062 10.4714 8.89062 10.5859C8.89062 10.724 8.84505 10.8385 8.75391 10.9297C8.66276 11.0182 8.54297 11.0625 8.39453 11.0625C8.24089 11.0625 8.10156 11.0078 7.97656 10.8984C7.85156 10.7891 7.78906 10.6341 7.78906 10.4336C7.78906 10.0924 7.95052 9.81641 8.27344 9.60547C8.59896 9.39453 9.02344 9.28906 9.54688 9.28906C10.0443 9.28906 10.3932 9.38932 10.5938 9.58984C10.7969 9.78776 10.8984 10.1224 10.8984 10.5938V11.9609L11.1484 11.9531C11.362 11.9688 11.5104 12.0703 11.5938 12.2578L11.4688 12.4727C11.388 12.5951 11.3203 12.6901 11.2656 12.7578C11.2135 12.8229 11.138 12.8971 11.0391 12.9805C10.9401 13.0638 10.8242 13.1237 10.6914 13.1602C10.5586 13.1966 10.4036 13.2148 10.2266 13.2148C10.0078 13.2148 9.84245 13.1328 9.73047 12.9688C9.44922 13.1719 9.08203 13.2734 8.62891 13.2734C8.43099 13.2734 8.26172 13.2422 8.12109 13.1797C7.98307 13.1198 7.88151 13.0391 7.81641 12.9375C7.75391 12.8359 7.70964 12.7409 7.68359 12.6523C7.65755 12.5638 7.64453 12.474 7.64453 12.3828C7.64453 12 7.77344 11.7135 8.03125 11.5234C8.28906 11.3333 8.8099 11.138 9.59375 10.9375V10.5117C9.59375 10.3034 9.54948 10.151 9.46094 10.0547C9.375 9.95833 9.26302 9.91016 9.125 9.91016C8.83073 9.91016 8.61979 9.99349 8.49219 10.1602ZM9.75391 11.3047V12.1211C9.50391 12.4518 9.2487 12.6172 8.98828 12.6172C8.83724 12.6172 8.71354 12.5807 8.61719 12.5078C8.52344 12.4349 8.47656 12.332 8.47656 12.1992C8.47656 11.9857 8.5638 11.8099 8.73828 11.6719C8.91536 11.5339 9.25391 11.4115 9.75391 11.3047ZM9.59375 12.0703V11.5938C9.21615 11.7318 9.02734 11.9336 9.02734 12.1992C9.02734 12.3112 9.06771 12.3893 9.14844 12.4336C9.28646 12.3841 9.4349 12.263 9.59375 12.0703ZM8.39453 10.7188C8.30339 10.7188 8.23958 10.6523 8.20312 10.5195C8.15104 10.306 8.21484 10.1198 8.39453 9.96094C8.57161 9.80469 8.83854 9.72656 9.19531 9.72656C9.36458 9.72656 9.5 9.79297 9.60156 9.92578C9.70312 10.056 9.75391 10.2513 9.75391 10.5117V11.0547C8.98568 11.2526 8.46875 11.4401 8.20312 11.6172C7.9375 11.7917 7.80469 12.0469 7.80469 12.3828C7.80469 12.5599 7.86458 12.7266 7.98438 12.8828C8.10417 13.0365 8.31901 13.1133 8.62891 13.1133C8.7513 13.1133 8.86589 13.0938 8.97266 13.0547C9.08203 13.0156 9.19401 12.9531 9.30859 12.8672C9.42578 12.7786 9.4974 12.7227 9.52344 12.6992C9.54948 12.6758 9.59245 12.6354 9.65234 12.5781C9.71484 12.5182 9.7487 12.4857 9.75391 12.4805C9.78776 12.8633 9.94531 13.0547 10.2266 13.0547C10.2969 13.0547 10.3776 13.0365 10.4688 13C10.5599 12.9635 10.651 12.8919 10.7422 12.7852C10.8359 12.6784 10.8945 12.6081 10.918 12.5742C10.944 12.5378 10.9818 12.4818 11.0312 12.4062C11.0807 12.3281 11.1172 12.2747 11.1406 12.2461C11.1068 12.1732 11.0417 12.1315 10.9453 12.1211C10.8021 12.3398 10.6562 12.4466 10.5078 12.4414C10.401 12.4362 10.3477 12.3607 10.3477 12.2148V10.5938C10.3477 10.1771 10.2656 9.88281 10.1016 9.71094C9.9401 9.53646 9.66146 9.44922 9.26562 9.44922C8.90885 9.44922 8.59896 9.54167 8.33594 9.72656C8.07552 9.90885 7.94531 10.1445 7.94531 10.4336C7.94531 10.582 7.99089 10.6979 8.08203 10.7812C8.17318 10.862 8.27734 10.9023 8.39453 10.9023C8.43099 10.8503 8.43099 10.7891 8.39453 10.7188ZM13.2812 9.92188H14.8164C14.8529 9.82031 14.8529 9.72656 14.8164 9.64062H13.2812V8.78516C13.2161 8.75651 13.151 8.75651 13.0859 8.78516C12.9896 8.96484 12.8828 9.1224 12.7656 9.25781C12.6484 9.39062 12.5495 9.48438 12.4688 9.53906C12.3906 9.59115 12.2773 9.65885 12.1289 9.74219C12.1107 9.79688 12.1107 9.85677 12.1289 9.92188H12.6055V11.9688C12.6055 12.7318 12.9206 13.1133 13.5508 13.1133C13.819 13.1133 14.0664 13.0443 14.293 12.9062C14.5195 12.7656 14.6888 12.5938 14.8008 12.3906C14.7773 12.3333 14.7344 12.3021 14.6719 12.2969C14.4271 12.5156 14.1901 12.625 13.9609 12.625C13.5078 12.625 13.2812 12.4193 13.2812 12.0078V9.92188ZM14.625 12.1289C14.7891 12.1497 14.9062 12.2396 14.9766 12.3984C14.8411 12.6458 14.6445 12.8529 14.3867 13.0195C14.1289 13.1888 13.8503 13.2734 13.5508 13.2734C12.8164 13.2734 12.4492 12.8385 12.4492 11.9688V10.0781H11.9688C11.9297 9.9401 11.9297 9.79688 11.9688 9.64844C12.1276 9.55729 12.2487 9.48307 12.332 9.42578C12.4154 9.36589 12.5195 9.26953 12.6445 9.13672C12.7695 9.00391 12.8802 8.84375 12.9766 8.65625C13.2214 8.55469 13.5065 8.5599 13.832 8.67188V9.48047H14.9688C15.0521 9.67318 15.0521 9.8724 14.9688 10.0781H13.832V12.0078C13.832 12.2578 13.9219 12.4049 14.1016 12.4492C14.2578 12.4154 14.4323 12.3086 14.625 12.1289ZM18.1133 12.8203C18.082 12.8802 18.082 12.944 18.1133 13.0117C18.7904 12.9961 19.4674 12.9961 20.1445 13.0117C20.1836 12.9492 20.1836 12.8854 20.1445 12.8203C19.5117 12.7891 19.1927 12.6641 19.1875 12.4453L19.1445 10.4805C19.1341 10.1237 19.0768 9.86328 18.9727 9.69922C18.8685 9.53255 18.6888 9.44922 18.4336 9.44922C18.0013 9.44922 17.487 9.7474 16.8906 10.3438V7.15234C16.8698 7.11068 16.8242 7.07552 16.7539 7.04688C16.3919 7.21875 16.0156 7.32552 15.625 7.36719C15.6094 7.43229 15.6094 7.49349 15.625 7.55078C15.9245 7.56641 16.1458 7.61979 16.2891 7.71094V12.4453C16.2839 12.638 16.0599 12.763 15.6172 12.8203C15.5859 12.8802 15.5859 12.944 15.6172 13.0117C16.2995 12.9857 16.9792 12.9857 17.6562 13.0117C17.6901 12.944 17.6901 12.8802 17.6562 12.8203C17.1719 12.7682 16.9271 12.6432 16.9219 12.4453C16.901 11.8906 16.8906 11.2734 16.8906 10.5938C17.4115 10.1328 17.8216 9.90234 18.1211 9.90234C18.4049 9.90234 18.5469 10.138 18.5469 10.6094L18.5391 12.4453C18.5391 12.5729 18.5 12.6628 18.4219 12.7148C18.3438 12.7643 18.2409 12.7995 18.1133 12.8203ZM17.9844 13.1484C17.9219 12.9948 17.9219 12.8372 17.9844 12.6758C18.0703 12.6758 18.1576 12.6536 18.2461 12.6094C18.3346 12.5625 18.3789 12.5078 18.3789 12.4453L18.3867 10.6094C18.3867 10.3255 18.3307 10.1523 18.2188 10.0898C18.026 10.1367 17.7669 10.2773 17.4414 10.5117C17.4414 11.2148 17.4518 11.8568 17.4727 12.4375C17.4831 12.5755 17.5872 12.6549 17.7852 12.6758C17.8503 12.8372 17.8503 12.9948 17.7852 13.1484C17.0221 13.1224 16.2539 13.1224 15.4805 13.1484C15.418 12.9948 15.418 12.8372 15.4805 12.6758C15.9076 12.6185 16.1237 12.5391 16.1289 12.4375V7.80859C15.9544 7.75391 15.7383 7.71875 15.4805 7.70312C15.4232 7.54948 15.4232 7.38411 15.4805 7.20703C15.8763 7.1862 16.319 7.06901 16.8086 6.85547C17.0924 6.8763 17.3034 6.96224 17.4414 7.11328V9.65625C17.8086 9.41146 18.2331 9.28906 18.7148 9.28906C19.0664 9.28906 19.3164 9.38542 19.4648 9.57812C19.6159 9.76823 19.694 10.069 19.6992 10.4805C19.7096 11.5013 19.7227 12.1562 19.7383 12.4453C19.7435 12.5521 19.9271 12.6289 20.2891 12.6758C20.349 12.8477 20.3438 13.0052 20.2734 13.1484C19.5104 13.1328 18.7474 13.1328 17.9844 13.1484ZM22.6367 9.70312C22.8451 9.70312 22.9961 9.77083 23.0898 9.90625C23.1836 10.0391 23.2305 10.2057 23.2305 10.4062C23.2305 10.4818 23.2174 10.5677 23.1914 10.6641H21.668C21.7487 10.3385 21.8789 10.0977 22.0586 9.94141C22.2409 9.78255 22.4336 9.70312 22.6367 9.70312ZM21.6289 10.9297H23.7578C23.7995 10.7995 23.8203 10.6654 23.8203 10.5273C23.8203 10.2227 23.7331 9.96745 23.5586 9.76172C23.3867 9.55339 23.112 9.44922 22.7344 9.44922C22.2422 9.44922 21.8281 9.6276 21.4922 9.98438C21.1562 10.3411 20.9883 10.7943 20.9883 11.3438C20.9883 11.9297 21.1484 12.3711 21.4688 12.668C21.7891 12.9648 22.1654 13.1133 22.5977 13.1133C22.918 13.1133 23.2148 13.0273 23.4883 12.8555C23.7643 12.681 23.9661 12.4193 24.0938 12.0703C24.0573 12.0286 24.0065 12 23.9414 11.9844C23.931 12 23.8997 12.043 23.8477 12.1133C23.7982 12.181 23.7617 12.2305 23.7383 12.2617C23.7148 12.2904 23.6719 12.3333 23.6094 12.3906C23.5495 12.4453 23.4909 12.4857 23.4336 12.5117C23.3789 12.5378 23.3086 12.5638 23.2227 12.5898C23.1367 12.6133 23.043 12.625 22.9414 12.625C22.5404 12.625 22.2214 12.5065 21.9844 12.2695C21.7474 12.0299 21.6237 11.7083 21.6133 11.3047C21.6133 11.2135 21.6185 11.0885 21.6289 10.9297ZM23.8789 11.8008C24.043 11.8372 24.1758 11.9193 24.2773 12.0469C24.1289 12.4531 23.8997 12.7591 23.5898 12.9648C23.2799 13.1706 22.9492 13.2734 22.5977 13.2734C22.1185 13.2734 21.7031 13.112 21.3516 12.7891C21.0026 12.4661 20.8281 11.9844 20.8281 11.3438C20.8281 10.763 21.0065 10.276 21.3633 9.88281C21.7227 9.48698 22.2305 9.28906 22.8867 9.28906C23.8789 9.28906 24.375 9.70182 24.375 10.5273C24.375 10.6888 24.3372 10.8763 24.2617 11.0898H22.1641V11.3438C22.1771 11.6589 22.263 11.9154 22.4219 12.1133C22.5807 12.3086 22.7995 12.4232 23.0781 12.457C23.2422 12.4414 23.3776 12.3854 23.4844 12.2891C23.5911 12.1927 23.7227 12.0299 23.8789 11.8008ZM23.0703 10.4062C23.0703 10.1198 22.974 9.94661 22.7812 9.88672C22.5521 9.95703 22.3815 10.1628 22.2695 10.5039H23.0625C23.0625 10.4935 23.0638 10.4779 23.0664 10.457C23.069 10.4362 23.0703 10.4193 23.0703 10.4062ZM26.5 10.8008C26.5651 10.5612 26.6992 10.3281 26.9023 10.1016C27.1055 9.875 27.3125 9.76172 27.5234 9.76172C27.7708 9.76172 27.8945 9.84115 27.8945 10C27.8945 10.1432 27.8268 10.2344 27.6914 10.2734C27.6549 10.3255 27.6549 10.3867 27.6914 10.457C27.832 10.457 27.9466 10.4141 28.0352 10.3281C28.1263 10.2422 28.1719 10.1224 28.1719 9.96875C28.1719 9.80729 28.1224 9.68099 28.0234 9.58984C27.9271 9.49609 27.8008 9.44922 27.6445 9.44922C27.4414 9.44922 27.237 9.53125 27.0312 9.69531C26.8281 9.85677 26.651 10.0378 26.5 10.2383V9.56641C26.4792 9.52474 26.4349 9.49089 26.3672 9.46484C26.0182 9.62891 25.6146 9.73568 25.1562 9.78516C25.1406 9.84766 25.1406 9.90885 25.1562 9.96875C25.5078 9.98438 25.7591 10.0378 25.9102 10.1289C25.931 11.1003 25.9284 11.8789 25.9023 12.4648C25.8971 12.6576 25.6758 12.7826 25.2383 12.8398C25.1992 12.9102 25.1992 12.9714 25.2383 13.0234C25.9206 12.9922 26.6641 12.9922 27.4688 13.0234C27.5052 12.9714 27.5052 12.9102 27.4688 12.8398C26.8516 12.7826 26.5404 12.6576 26.5352 12.4648C26.5117 11.9362 26.5 11.3815 26.5 10.8008ZM27.0859 12.457C27.0911 12.5586 27.2669 12.638 27.6133 12.6953C27.6992 12.8672 27.694 13.0326 27.5977 13.1914C26.4935 13.1549 25.6589 13.1471 25.0938 13.168C24.9974 13.0143 24.9922 12.8568 25.0781 12.6953C25.5156 12.638 25.737 12.5586 25.7422 12.457C25.7734 11.7148 25.776 10.9701 25.75 10.2227C25.5781 10.1706 25.3411 10.1367 25.0391 10.1211C24.9792 9.96484 24.9792 9.79948 25.0391 9.625C25.474 9.59896 25.9349 9.48177 26.4219 9.27344C26.7031 9.30469 26.9141 9.38932 27.0547 9.52734C27.2734 9.36849 27.4701 9.28906 27.6445 9.28906C27.8477 9.28906 28.013 9.34896 28.1406 9.46875C28.2682 9.58854 28.332 9.75521 28.332 9.96875C28.332 10.1719 28.2721 10.3307 28.1523 10.4453C28.0326 10.5599 27.8789 10.6172 27.6914 10.6172C27.5169 10.6172 27.3711 10.5586 27.2539 10.4414C27.1471 10.5846 27.0807 10.7148 27.0547 10.832C27.0547 11.3971 27.0651 11.9388 27.0859 12.457Z" fill="#8E7C7C"/>
<path d="M18.712 19.672C18.712 19.784 18.768 19.872 18.88 19.936C18.9973 20 19.1787 20.0693 19.424 20.144C19.7173 20.24 19.9573 20.3333 20.144 20.424C20.336 20.5147 20.5013 20.656 20.64 20.848C20.784 21.04 20.856 21.2907 20.856 21.6C20.856 22.592 20.2107 23.088 18.92 23.088C18.7067 23.088 18.4453 23.0693 18.136 23.032C17.832 22.9947 17.5547 22.9467 17.304 22.888C17.3147 22.776 17.336 22.6133 17.368 22.4C17.4053 22.1813 17.44 22.0187 17.472 21.912C17.6587 21.9387 17.9387 21.9707 18.312 22.008C18.6907 22.0453 18.976 22.064 19.168 22.064C19.28 22.064 19.3467 22.056 19.368 22.04C19.4 22.0187 19.424 21.984 19.44 21.936C19.4613 21.8827 19.472 21.8373 19.472 21.8C19.472 21.6933 19.4213 21.6133 19.32 21.56C19.2187 21.5013 19.0453 21.432 18.8 21.352C18.5067 21.2613 18.264 21.168 18.072 21.072C17.88 20.976 17.712 20.8267 17.568 20.624C17.424 20.4213 17.352 20.1547 17.352 19.824C17.352 19.5893 17.4053 19.36 17.512 19.136C17.6187 18.9067 17.728 18.752 17.84 18.672C17.9253 18.6133 18.1013 18.5573 18.368 18.504C18.6347 18.4507 18.8853 18.424 19.12 18.424C19.7173 18.424 20.2053 18.48 20.584 18.592C20.5787 18.6987 20.56 18.8453 20.528 19.032C20.5013 19.2187 20.472 19.3893 20.44 19.544L20.256 19.536C19.5627 19.488 19.12 19.464 18.928 19.464C18.848 19.464 18.8027 19.4667 18.792 19.472C18.7707 19.4827 18.752 19.5067 18.736 19.544C18.72 19.5813 18.712 19.624 18.712 19.672ZM23.9732 19.24C24.3572 19.24 24.6612 19.368 24.8852 19.624C25.1145 19.8747 25.2292 20.3147 25.2292 20.944C25.2292 21.4133 25.1839 21.7973 25.0932 22.096C25.0025 22.3893 24.8985 22.584 24.7812 22.68C24.6639 22.776 24.4585 22.8533 24.1652 22.912C23.8772 22.9707 23.5785 23 23.2692 23C23.1785 23 23.0265 22.9947 22.8132 22.984V24.12L21.4452 24.176V19.32H22.5652L22.7012 19.888C22.8399 19.6907 23.0159 19.5333 23.2292 19.416C23.4479 19.2987 23.6959 19.24 23.9732 19.24ZM23.6532 22.024C23.7119 21.9813 23.7545 21.8613 23.7812 21.664C23.8079 21.4613 23.8212 21.2693 23.8212 21.088C23.8212 20.7893 23.7839 20.568 23.7092 20.424C23.6345 20.28 23.4852 20.208 23.2612 20.208C23.1012 20.208 22.9519 20.224 22.8132 20.256V22.032L23.0372 22.056C23.1065 22.0613 23.2052 22.064 23.3332 22.064C23.5145 22.064 23.6212 22.0507 23.6532 22.024ZM27.9575 23L27.8295 22.496C27.5842 22.896 27.2428 23.096 26.8055 23.096C26.4482 23.096 26.1548 22.9973 25.9255 22.8C25.7015 22.5973 25.5895 22.3147 25.5895 21.952C25.5895 21.728 25.6535 21.5333 25.7815 21.368C25.9148 21.1973 26.0962 21.0773 26.3255 21.008C26.6242 20.9227 27.0855 20.8747 27.7095 20.864C27.7095 20.512 27.6935 20.3253 27.6615 20.304C27.6348 20.2827 27.5495 20.272 27.4055 20.272C27.3148 20.272 27.1895 20.2773 27.0295 20.288C26.7735 20.2987 26.4268 20.328 25.9895 20.376C25.9468 20.088 25.9148 19.7787 25.8935 19.448C26.1762 19.3893 26.4722 19.3413 26.7815 19.304C27.0908 19.2613 27.3682 19.24 27.6135 19.24C28.0402 19.24 28.3602 19.312 28.5735 19.456C28.7868 19.5947 28.9255 19.7787 28.9895 20.008C29.0535 20.2373 29.0828 20.528 29.0775 20.88L29.0695 22.056L29.0935 23H27.9575ZM27.2695 22.2C27.4082 22.2 27.5548 22.1733 27.7095 22.12V21.528H27.6455C27.2508 21.528 27.0322 21.5493 26.9895 21.592C26.9628 21.6187 26.9415 21.6587 26.9255 21.712C26.9148 21.7653 26.9095 21.816 26.9095 21.864C26.9095 21.992 26.9388 22.08 26.9975 22.128C27.0562 22.176 27.1468 22.2 27.2695 22.2ZM32.7912 22.888C32.3592 23.032 31.8765 23.104 31.3432 23.104C30.7459 23.104 30.2979 22.9547 29.9992 22.656C29.7059 22.352 29.5592 21.88 29.5592 21.24C29.5592 20.9253 29.6019 20.616 29.6872 20.312C29.7725 20.0027 29.8632 19.7947 29.9592 19.688C30.0712 19.5653 30.2899 19.4613 30.6152 19.376C30.9459 19.2907 31.2872 19.248 31.6392 19.248C32.0072 19.248 32.3779 19.28 32.7512 19.344C32.7405 19.4773 32.7219 19.6347 32.6952 19.816C32.6739 19.992 32.6499 20.1493 32.6232 20.288C32.2925 20.2667 31.9805 20.256 31.6872 20.256C31.3992 20.256 31.2152 20.272 31.1352 20.304C31.0925 20.32 31.0525 20.4293 31.0152 20.632C30.9832 20.8347 30.9672 21.024 30.9672 21.2C30.9672 21.4347 30.9992 21.616 31.0632 21.744C31.1325 21.8667 31.2392 21.952 31.3832 22C31.5272 22.048 31.7219 22.072 31.9672 22.072C32.0739 22.072 32.3085 22.0613 32.6712 22.04L32.7912 22.888ZM35.4819 22.04C35.6152 22.04 35.8632 22.0267 36.2259 22C36.2739 22 36.3619 21.9947 36.4899 21.984L36.6099 22.808C36.1992 23 35.6659 23.096 35.0099 23.096C34.3965 23.096 33.9245 22.9413 33.5939 22.632C33.2685 22.3227 33.1059 21.856 33.1059 21.232C33.1059 20.912 33.1459 20.6027 33.2259 20.304C33.3112 20.0053 33.4072 19.7973 33.5139 19.68C33.6259 19.5627 33.8339 19.4613 34.1379 19.376C34.4419 19.2907 34.7432 19.248 35.0419 19.248C35.5219 19.248 35.8819 19.3333 36.1219 19.504C36.3619 19.6747 36.5192 19.912 36.5939 20.216C36.6685 20.5147 36.7059 20.9173 36.7059 21.424C36.3432 21.4453 35.9885 21.456 35.6419 21.456H34.5059C34.5059 21.6267 34.5405 21.7547 34.6099 21.84C34.6845 21.9253 34.7885 21.9813 34.9219 22.008C35.0552 22.0293 35.2419 22.04 35.4819 22.04ZM34.5859 20.2C34.5539 20.216 34.5299 20.2853 34.5139 20.408C34.4979 20.5307 34.4872 20.6693 34.4819 20.824H34.8979C35.1485 20.824 35.3299 20.8213 35.4419 20.816C35.4419 20.56 35.4045 20.3787 35.3299 20.272C35.2605 20.1653 35.1379 20.112 34.9619 20.112C34.8179 20.112 34.6925 20.1413 34.5859 20.2Z" fill="#291A1A"/>
<defs>
<radialGradient id="paint0_radial_2_16" cx="0" cy="0" r="1" gradientUnits="userSpaceOnUse" gradientTransform="translate(19 15) rotate(180) scale(11.5 12.9322)">
<stop stop-color="#4DE2AD"/>
<stop offset="0.208333" stop-color="#59D2A7" stop-opacity="0.802083"/>
<stop offset="0.604167" stop-color="#54DBAA" stop-opacity="0.802083"/>
<stop offset="0.984375" stop-color="#3CDC5F" stop-opacity="0"/>
</radialGradient>
</defs>
</svg>
